<?xml version="1.0" standalone="no"?>
<!DOCTYPE svg PUBLIC "-//W3C//DTD SVG 20010904//EN"
 "http://www.w3.org/TR/2001/REC-SVG-20010904/DTD/svg10.dtd">
<svg version="1.0" xmlns="http://www.w3.org/2000/svg"
 width="512.000000pt" height="512.000000pt" viewBox="0 0 512.000000 512.000000"
 preserveAspectRatio="xMidYMid meet">
<metadata>
Created by potrace 1.16, written by Peter Selinger 2001-2019
</metadata>
<g transform="translate(0.000000,512.000000) scale(0.100000,-0.100000)"
fill="#000000" stroke="none">
<path d="M2320 5114 c-266 -32 -484 -82 -670 -156 -266 -105 -311 -138 -187
-138 l60 0 -47 -35 c-25 -20 -46 -40 -46 -44 0 -5 7 -28 15 -51 22 -63 20 -65
-35 -25 l-50 37 -50 -37 c-27 -20 -50 -35 -50 -32 0 2 9 29 19 60 20 57 20 57
0 68 -17 9 -34 2 -105 -43 -47 -29 -93 -60 -102 -69 -10 -8 -26 -21 -37 -27
-17 -10 -14 -11 25 -12 l45 0 -49 -35 c-27 -19 -50 -36 -52 -38 -2 -2 5 -29
15 -60 11 -32 18 -57 15 -57 -3 0 -26 16 -51 35 l-46 35 -48 -35 c-39 -29 -48
-33 -51 -19 -4 23 -211 -186 -315 -317 -56 -72 -123 -171 -102 -151 7 6 23 12
35 12 17 0 24 9 34 48 7 26 16 50 20 55 3 4 14 -18 24 -48 l17 -55 60 0 c32 0
59 -3 59 -7 0 -5 -20 -21 -45 -38 -24 -16 -45 -35 -45 -41 0 -6 7 -31 15 -54
22 -61 19 -65 -23 -33 -59 47 -59 47 -112 8 -28 -20 -50 -35 -50 -32 0 2 9 29
19 60 l20 57 -28 19 -28 20 -35 -62 c-69 -119 -120 -217 -113 -217 3 0 -5 -21
-18 -47 -27 -52 -49 -102 -53 -118 -1 -5 -7 -23 -14 -40 -6 -16 -11 -31 -11
-32 0 -2 -6 -21 -14 -42 l-14 -40 65 -3 65 -3 -50 -37 -50 -38 19 -55 c10 -30
17 -55 14 -55 -12 0 -94 64 -95 74 -3 50 -63 -241 -75 -361 l-7 -73 2553 0
2553 0 -7 73 c-9 85 -41 260 -62 335 l-15 52 -1259 0 -1260 0 0 235 0 235
1170 0 1170 0 -37 68 c-52 95 -156 255 -217 332 l-51 65 -1017 -3 -1018 -2 0
235 0 235 768 0 c692 1 765 2 747 16 -92 71 -355 212 -510 274 -167 67 -387
127 -570 156 -105 16 -535 28 -625 18z m-86 -239 l17 -55 62 0 62 0 -47 -33
c-52 -35 -55 -45 -33 -107 8 -23 15 -45 15 -47 0 -3 -22 12 -50 32 l-50 37
-50 -37 c-27 -20 -50 -33 -50 -29 0 4 8 32 17 62 15 47 15 55 3 62 -8 5 -30
20 -49 34 l-35 26 62 0 61 0 17 55 c10 30 21 55 24 55 3 0 14 -25 24 -55z
m-428 -210 l18 -55 64 0 65 0 -44 -31 c-24 -17 -47 -35 -52 -38 -4 -4 2 -33
12 -64 11 -31 18 -57 15 -57 -2 0 -25 15 -52 34 l-47 35 -48 -35 c-25 -19 -49
-34 -51 -34 -3 0 4 26 15 57 l20 58 -25 18 c-13 10 -35 26 -48 37 l-23 19 61
1 60 0 18 55 c9 30 19 55 21 55 2 0 12 -25 21 -55z m-343 -265 c69 -1 69 1 -9
-56 l-29 -21 17 -53 c10 -30 16 -55 14 -57 -1 -2 -21 10 -44 27 -23 16 -47 30
-53 30 -6 0 -29 -14 -51 -31 -21 -17 -41 -29 -44 -27 -2 3 3 24 11 48 21 61
20 65 -31 102 l-47 33 63 5 63 5 14 40 c7 22 16 47 19 55 4 9 14 -7 26 -42
l20 -58 61 0z m767 58 l15 -53 64 -5 64 -5 -47 -33 c-51 -37 -52 -41 -31 -102
8 -24 13 -45 11 -48 -3 -2 -23 10 -44 27 -22 17 -45 31 -51 31 -6 0 -30 -14
-53 -30 -23 -17 -43 -29 -44 -27 -2 2 4 27 14 56 18 59 24 49 -54 108 l-29 22
62 0 62 1 17 55 c10 30 20 55 23 55 4 0 13 -24 21 -52z m-1274 -213 l17 -54
64 -3 64 -3 -50 -37 -50 -38 19 -55 c10 -30 15 -55 11 -55 -4 0 -25 13 -47 30
-21 16 -42 30 -47 30 -4 0 -26 -14 -49 -30 -23 -17 -43 -28 -46 -26 -2 3 4 28
13 56 19 57 20 56 -47 97 -16 10 -28 21 -28 25 0 4 27 8 59 8 l60 0 17 55 c10
30 19 55 20 55 2 0 11 -25 20 -55z m850 0 l17 -54 65 -3 64 -3 -48 -34 c-27
-19 -50 -35 -51 -36 -2 -1 4 -25 13 -54 8 -29 14 -55 11 -57 -2 -2 -21 9 -43
26 -21 16 -43 29 -49 29 -5 0 -28 -13 -49 -29 -22 -17 -41 -28 -44 -26 -2 3 4
28 13 57 11 32 14 54 8 58 -49 31 -83 57 -83 64 0 4 26 7 58 7 l58 0 18 55 c9
30 19 55 21 55 2 0 12 -25 21 -55z m-348 -263 c34 -2 62 -6 62 -10 0 -4 -21
-20 -45 -37 -50 -34 -51 -36 -30 -95 22 -62 20 -63 -35 -24 l-50 36 -50 -37
c-27 -20 -50 -35 -50 -32 0 2 9 29 19 59 l19 56 -44 32 c-24 17 -44 35 -44 40
0 5 25 10 57 12 56 3 56 3 70 43 7 22 16 47 19 55 4 9 13 -7 23 -40 l17 -55
62 -3z m773 51 l15 -48 57 -3 c31 -2 57 -7 57 -12 0 -5 -18 -21 -40 -37 -42
-30 -45 -38 -31 -75 4 -13 11 -36 15 -52 l7 -28 -51 37 -50 37 -50 -36 c-55
-39 -57 -38 -35 24 21 59 20 61 -30 95 -24 17 -45 33 -45 37 0 4 28 8 62 10
l62 3 15 48 c8 26 17 47 21 47 4 0 13 -21 21 -47z m-1273 -214 l19 -54 59 -5
59 -5 -47 -34 c-27 -19 -48 -35 -48 -36 0 -1 9 -27 20 -59 20 -60 21 -60 -44
-14 l-39 28 -48 -35 c-27 -19 -49 -32 -49 -27 0 4 7 30 15 57 17 55 20 50 -53
104 l-27 20 61 1 61 0 18 60 c10 33 20 59 22 57 2 -2 11 -28 21 -58z m850 0
l17 -54 60 -5 60 -5 -47 -33 c-27 -18 -48 -34 -48 -36 0 -2 9 -28 19 -60 22
-63 21 -63 -48 -12 -36 27 -37 27 -92 -16 -20 -15 -39 -28 -42 -28 -3 0 3 26
14 58 22 64 27 53 -47 109 l-29 22 61 0 61 1 18 60 c10 33 20 58 22 57 2 -2
11 -28 21 -58z m-1195 -269 c68 -1 69 1 -8 -55 l-28 -21 16 -49 c10 -27 17
-53 17 -58 0 -5 -22 7 -49 27 l-50 35 -46 -36 c-25 -19 -48 -33 -50 -31 -1 1
5 28 14 59 l18 56 -50 34 -50 34 63 5 63 5 14 40 c7 22 16 47 19 55 4 9 14 -7
26 -42 l20 -58 61 0z m771 55 l17 -55 62 0 62 -1 -27 -20 c-76 -56 -72 -49
-55 -109 9 -30 15 -56 13 -57 -2 -2 -23 12 -48 31 l-45 35 -48 -35 c-27 -18
-50 -32 -52 -31 -2 2 4 23 12 47 22 61 20 67 -31 103 l-46 32 64 5 63 5 15 53
c8 28 17 52 21 52 3 0 13 -25 23 -55z m848 3 l15 -53 63 -5 63 -5 -47 -33
c-51 -37 -52 -41 -31 -102 8 -24 14 -45 12 -47 -2 -1 -21 10 -43 27 -21 16
-46 29 -54 29 -8 0 -33 -13 -54 -29 -22 -17 -41 -29 -42 -27 -2 2 4 27 14 56
18 59 22 52 -56 110 l-27 20 62 1 62 0 17 55 c10 30 21 55 25 55 3 0 13 -24
21 -52z m-1272 -220 l12 -47 65 -3 65 -3 -48 -34 c-27 -19 -50 -35 -52 -36 -1
-1 7 -27 17 -58 11 -32 17 -57 13 -57 -4 0 -25 14 -46 30 -22 17 -44 30 -50
30 -6 0 -29 -14 -50 -30 -22 -17 -41 -28 -44 -26 -2 3 4 28 13 57 l18 53 -24
15 c-13 9 -35 26 -49 38 l-25 22 62 1 62 0 17 56 c18 62 25 61 44 -8z m846 7
l17 -54 66 -3 66 -3 -35 -22 c-73 -48 -72 -45 -55 -93 24 -69 20 -74 -29 -40
-25 16 -48 30 -53 30 -4 0 -26 -14 -47 -30 -22 -17 -41 -28 -44 -26 -2 3 4 28
13 56 17 51 17 52 -4 67 -12 8 -34 26 -49 39 l-27 23 61 1 60 0 18 55 c9 30
19 55 21 55 2 0 12 -25 21 -55z m-1195 -265 c32 0 59 -3 59 -7 0 -5 -21 -21
-45 -38 -50 -34 -51 -36 -30 -95 8 -24 13 -45 11 -47 -2 -2 -24 10 -49 28
l-46 32 -50 -37 c-28 -21 -51 -36 -51 -33 0 2 9 29 19 60 l20 56 -52 38 -52
38 66 3 c63 3 67 4 72 30 3 15 11 41 17 57 l12 30 20 -57 20 -58 59 0z m850 0
l64 -5 -47 -35 c-26 -19 -47 -40 -48 -46 0 -6 7 -31 15 -54 8 -24 13 -45 11
-48 -3 -2 -25 10 -50 28 l-45 33 -50 -37 c-28 -20 -51 -35 -51 -33 0 1 7 24
15 51 8 27 15 54 15 61 0 6 -21 27 -47 46 l-48 34 64 5 64 5 14 40 c24 72 25
72 43 15 l17 -55 64 -5z m770 53 l15 -48 64 -5 65 -5 -47 -34 c-27 -19 -48
-40 -48 -47 0 -6 7 -31 15 -54 22 -62 20 -64 -31 -25 -26 19 -50 35 -54 35 -4
0 -28 -16 -54 -35 -51 -39 -53 -37 -31 25 8 23 15 48 15 54 0 7 -21 28 -47 47
l-48 34 65 5 64 5 15 48 c8 26 17 47 21 47 4 0 13 -21 21 -47z"/>
<path d="M15 2253 c8 -80 50 -301 68 -358 l12 -40 2465 0 2465 0 12 40 c18 57
60 278 68 358 l7 67 -2552 0 -2552 0 7 -67z"/>
<path d="M282 1383 c38 -85 141 -249 237 -375 l65 -88 1976 0 1976 0 65 88
c96 126 199 290 237 375 2 4 -1023 7 -2278 7 -1255 0 -2280 -3 -2278 -7z"/>
<path d="M1110 451 c0 -14 191 -129 320 -192 345 -170 658 -246 1057 -256 424
-11 759 54 1124 218 147 66 399 211 399 230 0 5 -586 9 -1450 9 -864 0 -1450
-4 -1450 -9z"/>
</g>
</svg>
